<?xml version="1.0" encoding="UTF-8" standalone="no"?>
<!DOCTYPE svg PUBLIC "-//W3C//DTD SVG 1.1//EN" "http://www.w3.org/Graphics/SVG/1.1/DTD/svg11.dtd">
<svg width="100%" height="100%" viewBox="0 0 37 59" version="1.1" xmlns="http://www.w3.org/2000/svg" xmlns:xlink="http://www.w3.org/1999/xlink" xml:space="preserve" xmlns:serif="http://www.serif.com/" style="fill-rule:evenodd;clip-rule:evenodd;stroke-linejoin:round;stroke-miterlimit:2;">
    <g transform="matrix(1,0,0,1,-1925.35,-307.553)">
        <g transform="matrix(1.06266,0,0,1.06266,-138.441,8.63054)">
            <g transform="matrix(1,0,0,1,0.32506,0.774729)">
                <g transform="matrix(1,0,0,1,-4.11209,2.32614)">
                    <path d="M1963,278.196C1972.44,278.196 1980.1,285.861 1980.1,295.302C1980.1,304.743 1972.44,312.408 1963,312.408C1953.56,312.408 1945.89,304.743 1945.89,295.302C1945.89,285.861 1953.56,278.196 1963,278.196ZM1963,288.459C1966.77,288.459 1969.84,291.525 1969.84,295.302C1969.84,299.078 1966.77,302.145 1963,302.145C1959.22,302.145 1956.15,299.078 1956.15,295.302C1956.15,291.525 1959.22,288.459 1963,288.459Z" style="fill:rgb(255,220,0);"/>
                </g>
                <g transform="matrix(1,0,0,1,-0.659419,-0.81265)">
                    <path d="M1943.86,305.283L1959.54,335.954L1975.17,305.283" style="fill:rgb(255,220,0);"/>
                </g>
            </g>
        </g>
    </g>
</svg>
