<?xml version="1.0" encoding="UTF-8" standalone="no"?>
<!DOCTYPE svg PUBLIC "-//W3C//DTD SVG 1.1//EN" "http://www.w3.org/Graphics/SVG/1.1/DTD/svg11.dtd">
<svg width="100%" height="100%" viewBox="0 0 490 352" version="1.1" xmlns="http://www.w3.org/2000/svg" xmlns:xlink="http://www.w3.org/1999/xlink" xml:space="preserve" xmlns:serif="http://www.serif.com/" style="fill-rule:evenodd;clip-rule:evenodd;stroke-linecap:round;stroke-linejoin:round;stroke-miterlimit:1.5;">
    <g transform="matrix(1,0,0,1,-1892.63,-377.23)">
        <g transform="matrix(1.06266,0,0,1.06266,108.36,-259.336)">
            <g id="mv_logo.svg" transform="matrix(3.16561,0,0,3.16561,1900.37,770.476)">
                <clipPath id="_clip1">
                    <rect x="-69.911" y="-54.159" width="145.455" height="104.585"/>
                </clipPath>
                <g clip-path="url(#_clip1)">
                    <g transform="matrix(1,0,0,1,-85,-85)">
                        <rect id="Artboard6" x="0" y="0" width="170" height="170" style="fill:none;"/>
                        <g>
                            <g>
                                <path d="M74.794,42.628C77.815,41.457 78.801,60.323 78,61.125C77.198,61.926 76.571,62.861 76.119,63.93C75.667,64.998 75.441,66.149 75.441,67.382L75.441,130.515L57.746,130.515L57.746,67.382C57.746,66.149 57.52,64.998 57.068,63.93C56.616,62.861 55.989,61.926 55.188,61.125C54.386,60.323 53.451,59.696 52.383,59.244C51.314,58.792 50.163,58.566 48.93,58.566C47.697,58.566 46.546,58.792 45.477,59.244C44.409,59.696 43.474,60.323 42.672,61.125C41.871,61.926 41.244,62.861 40.792,63.93C40.34,64.998 40.114,66.149 40.114,67.382L40.114,130.515L22.419,130.515L22.419,67.382C22.419,63.724 23.108,60.282 24.484,57.055C25.861,53.829 27.752,51.013 30.157,48.609C32.561,46.204 35.377,44.314 38.603,42.937C41.83,41.56 45.272,40.871 48.93,40.871C52.218,40.871 55.383,41.457 58.425,42.628C61.466,43.8 64.2,45.495 66.625,47.715C69.05,45.495 71.773,43.8 74.794,42.628Z" style="fill:rgb(0,245,243);fill-rule:nonzero;"/>
                                <path d="M66.594,67.614C66.014,58.741 74.106,49.788 83.889,49.788C91.924,49.788 97.635,55.174 99.512,61.589C100.228,64.032 100.817,68.536 100.843,73.852C100.915,88.396 101.31,105.544 101.31,109.072C101.31,119.322 101.396,122.485 101.396,122.485L149.832,52.481" style="fill:none;stroke:url(#_Linear2);stroke-width:17.5px;"/>
                            </g>
                        </g>
                    </g>
                </g>
            </g>
        </g>
    </g>
    <defs>
        <linearGradient id="_Linear2" x1="0" y1="0" x2="1" y2="0" gradientUnits="userSpaceOnUse" gradientTransform="matrix(66.9064,0,0,66.9064,68.5407,93.6328)"><stop offset="0" style="stop-color:rgb(0,245,243);stop-opacity:1"/><stop offset="1" style="stop-color:rgb(255,240,33);stop-opacity:1"/></linearGradient>
    </defs>
</svg>
