<?xml version="1.0" encoding="UTF-8" standalone="no"?>
<!DOCTYPE svg PUBLIC "-//W3C//DTD SVG 1.1//EN" "http://www.w3.org/Graphics/SVG/1.1/DTD/svg11.dtd">
<svg width="100%" height="100%" viewBox="0 0 322 322" version="1.1" xmlns="http://www.w3.org/2000/svg" xmlns:xlink="http://www.w3.org/1999/xlink" xml:space="preserve" xmlns:serif="http://www.serif.com/" style="fill-rule:evenodd;clip-rule:evenodd;stroke-linecap:square;stroke-linejoin:round;stroke-miterlimit:1.5;">
    <g id="iMVentions-4" serif:id="iMVentions 4">
    </g>
    <g id="iMVentions-3" serif:id="iMVentions 3">
    </g>
    <g id="iMVentions-31" serif:id="iMVentions 3">
    </g>
    <g id="Logo-Full" serif:id="Logo Full">
    </g>
    <g id="Gear-Underline" serif:id="Gear Underline">
    </g>
    <g id="Lightbulb">
    </g>
    <g id="Lightbulb1" serif:id="Lightbulb">
    </g>
    <g id="iMVentions-2" serif:id="iMVentions 2">
    </g>
    <g id="iMVentions-1a" serif:id="iMVentions 1a">
    </g>
    <g id="iMVentions-1" serif:id="iMVentions 1">
    </g>
    <g id="Brainstorm">
    </g>
    <g id="Email--w--" serif:id="Email  w/@">
    </g>
    <g id="Elephant">
    </g>
    <g id="Fat-Elephant" serif:id="Fat Elephant">
    </g>
    <g id="Swatches">
    </g>
    <g id="Logo-Condensed" serif:id="Logo Condensed">
    </g>
    <rect id="Artboard11" x="0" y="0" width="321.162" height="321.162" style="fill:none;"/>
    <clipPath id="_clip1">
        <rect x="0" y="0" width="321.162" height="321.162"/>
    </clipPath>
    <g clip-path="url(#_clip1)">
        <g id="MV">
            <g id="MV1" serif:id="MV">
                <path d="M321.162,-0L64.232,-0C28.782,-0 0,28.782 0,64.232L0,321.162L256.929,321.162C292.38,321.162 321.162,292.38 321.162,256.929L321.162,-0Z" style="fill:#000b0b;"/>
                <path d="M146.754,112.208C146.709,112.343 146.659,112.438 146.605,112.492C145.022,114.075 143.784,115.921 142.892,118.031C141.999,120.141 141.553,122.414 141.553,124.848L141.553,249.504L106.615,249.504L106.615,124.848C106.615,122.414 106.169,120.141 105.276,118.031C104.383,115.921 103.146,114.075 101.563,112.492C99.98,110.91 98.134,109.672 96.024,108.779C93.914,107.887 91.642,107.44 89.207,107.44C86.772,107.44 84.5,107.887 82.39,108.779C80.28,109.672 78.433,110.91 76.851,112.492C75.268,114.075 74.031,115.921 73.138,118.031C72.245,120.141 71.799,122.414 71.799,124.848L71.799,249.504L36.861,249.504L36.861,124.848C36.861,117.625 38.221,110.829 40.939,104.458C43.658,98.087 47.391,92.528 52.139,87.78C56.887,83.033 62.446,79.299 68.816,76.581C75.187,73.862 81.984,72.503 89.207,72.503C95.699,72.503 101.948,73.659 107.954,75.972C113.96,78.285 119.356,81.633 124.145,86.015C128.933,81.633 134.309,78.285 140.274,75.972C140.498,75.885 140.716,75.854 140.929,75.875C146.306,73.909 152.124,72.832 158.233,72.832C182.6,72.832 195.777,89.47 201.472,108.925C203.164,114.702 204.733,125.335 204.795,137.907C204.864,151.792 204.741,151.76 204.947,164.433L272.604,74.166L307.61,73.999L207.054,207.571L175.931,250.353L175.577,198.211C175.577,198.211 175.4,191.855 175.4,171.256C175.4,164.3 175.363,164.498 174.432,137.708C174.14,129.292 173.634,122.133 172.501,118.263C170.78,112.385 165.596,107.385 158.233,107.385C153.682,107.385 149.704,109.25 146.754,112.208Z" style="fill:url(#_Linear2);"/>
            </g>
        </g>
    </g>
    <g id="iMVentions-32" serif:id="iMVentions 3">
    </g>
    <g id="Logo-Condensed1" serif:id="Logo Condensed">
    </g>
    <g id="Copy">
        <g id="Script">
            <g>
                <path d="M-2908.69,-1272.93C-2906.34,-1272.75 -2903.95,-1272.81 -2901.64,-1273.29C-2900.21,-1273.58 -2898.82,-1274.04 -2897.52,-1274.7C-2889.26,-1278.89 -2887.74,-1289.53 -2887.46,-1297.78C-2887.39,-1299.68 -2887.4,-1301.59 -2887.45,-1303.5C-2887.52,-1305.88 -2887.66,-1308.25 -2887.86,-1310.62C-2888.12,-1313.85 -2888.47,-1317.08 -2888.88,-1320.3C-2889.37,-1324.16 -2889.95,-1328.01 -2890.56,-1331.85C-2891.35,-1336.77 -2892.21,-1341.66 -2893.1,-1346.56C-2894.28,-1353.02 -2895.5,-1359.48 -2896.71,-1365.93C-2897.88,-1372.15 -2899.17,-1378.35 -2900.48,-1384.54C-2901.45,-1389.14 -2902.43,-1393.74 -2903.36,-1398.34C-2904.05,-1401.74 -2904.72,-1405.14 -2905.32,-1408.56C-2905.83,-1411.44 -2906.29,-1414.34 -2906.68,-1417.25C-2906.97,-1419.4 -2907.21,-1421.56 -2907.39,-1423.72C-2907.53,-1425.47 -2907.63,-1427.23 -2907.67,-1428.99C-2907.83,-1436.75 -2906.88,-1446.21 -2899.99,-1451.12C-2898.89,-1451.91 -2897.69,-1452.54 -2896.43,-1453.04C-2894.39,-1453.84 -2892.23,-1454.28 -2890.06,-1454.49C-2889.66,-1454.53 -2889.95,-1454.77 -2890.35,-1454.8C-2918.12,-1455.77 -2945.88,-1456.85 -2973.64,-1458.06C-2976.55,-1458.19 -2979.51,-1458.05 -2982.36,-1457.39C-2984.13,-1456.98 -2985.85,-1456.37 -2987.45,-1455.5C-2996.77,-1450.42 -2998.1,-1438.4 -2998.06,-1428.91C-2998.06,-1426.7 -2997.97,-1424.5 -2997.83,-1422.3C-2997.66,-1419.62 -2997.41,-1416.96 -2997.11,-1414.3C-2996.71,-1410.8 -2996.24,-1407.31 -2995.72,-1403.83C-2995.06,-1399.43 -2994.34,-1395.04 -2993.6,-1390.66C-2992.52,-1384.27 -2991.41,-1377.88 -2990.37,-1371.48C-2989.05,-1363.31 -2987.57,-1355.17 -2986.25,-1347C-2984.63,-1336.89 -2983.32,-1326.63 -2984.46,-1316.4C-2967.79,-1315.14 -2951.11,-1313.93 -2934.43,-1312.76C-2933.97,-1310.09 -2933.49,-1307.42 -2932.91,-1304.77C-2932.45,-1302.7 -2931.95,-1300.64 -2931.36,-1298.6C-2928.18,-1287.52 -2921.75,-1273.91 -2908.69,-1272.93Z" style="fill:url(#_Linear3);stroke:#141501;stroke-width:4.17px;"/>
                <path d="M-2996.82,-1279.98C-3006.36,-1280.79 -3015.49,-1284.58 -3021.07,-1292.67C-3022.73,-1295.07 -3024.01,-1297.71 -3025,-1300.45C-3027.27,-1306.73 -3027.67,-1313.28 -3028.65,-1319.83C-2997.23,-1317.32 -2965.81,-1314.96 -2934.37,-1312.76C-2933.91,-1310.08 -2933.43,-1307.41 -2932.85,-1304.76C-2932.39,-1302.69 -2931.89,-1300.63 -2931.3,-1298.6C-2928.12,-1287.51 -2921.69,-1273.9 -2908.63,-1272.92C-2938.03,-1275.13 -2967.43,-1277.49 -2996.82,-1279.98Z" style="fill:url(#_Linear4);stroke:#141501;stroke-width:4.17px;"/>
                <path d="M-2907.32,-1429.56C-2908.84,-1437.87 -2905.77,-1448.44 -2897.92,-1452.59C-2894.35,-1454.47 -2890.21,-1454.93 -2886.22,-1454.66C-2875.3,-1453.92 -2868.95,-1443.31 -2865.83,-1433.94C-2865.17,-1431.98 -2864.57,-1429.96 -2864.2,-1427.93C-2878.58,-1428.44 -2892.95,-1428.98 -2907.32,-1429.56Z" style="fill:url(#_Linear5);stroke:#141501;stroke-width:4.17px;"/>
            </g>
            <g>
                <path d="M-2981.2,-1428.5C-2982.05,-1428.54 -2982.96,-1429.16 -2983.1,-1430.04C-2983.25,-1430.9 -2982.48,-1431.45 -2981.68,-1431.41C-2965.24,-1430.58 -2948.78,-1429.8 -2932.33,-1429.06C-2931.47,-1429.02 -2930.55,-1428.4 -2930.39,-1427.52C-2930.23,-1426.64 -2931,-1426.08 -2931.8,-1426.12C-2948.27,-1426.87 -2964.74,-1427.66 -2981.2,-1428.5Z" style="fill:#141501;"/>
                <path d="M-2977.51,-1441.53C-2978.35,-1441.57 -2979.26,-1442.18 -2979.41,-1443.05C-2979.55,-1443.91 -2978.78,-1444.46 -2977.99,-1444.42C-2961.59,-1443.65 -2945.19,-1442.92 -2928.79,-1442.24C-2927.94,-1442.2 -2927.01,-1441.59 -2926.85,-1440.71C-2926.69,-1439.84 -2927.46,-1439.29 -2928.26,-1439.32C-2944.68,-1440.01 -2961.09,-1440.75 -2977.51,-1441.53Z" style="fill:#141501;"/>
                <path d="M-2980.86,-1413.96C-2981.71,-1414.01 -2982.62,-1414.64 -2982.77,-1415.52C-2982.91,-1416.39 -2982.15,-1416.94 -2981.34,-1416.9C-2964.5,-1416 -2947.66,-1415.15 -2930.81,-1414.34C-2929.94,-1414.3 -2929.01,-1413.67 -2928.85,-1412.78C-2928.7,-1411.9 -2929.46,-1411.33 -2930.27,-1411.37C-2947.14,-1412.19 -2964,-1413.05 -2980.86,-1413.96Z" style="fill:#141501;"/>
                <path d="M-2978.4,-1399.16C-2979.26,-1399.21 -2980.18,-1399.86 -2980.33,-1400.74C-2980.47,-1401.62 -2979.7,-1402.18 -2978.89,-1402.13C-2961.97,-1401.18 -2945.05,-1400.28 -2928.12,-1399.42C-2927.24,-1399.37 -2926.31,-1398.73 -2926.15,-1397.83C-2925.99,-1396.95 -2926.76,-1396.37 -2927.58,-1396.41C-2944.52,-1397.28 -2961.46,-1398.2 -2978.4,-1399.16Z" style="fill:#141501;"/>
                <path d="M-2975.92,-1384.21C-2976.79,-1384.26 -2977.71,-1384.92 -2977.86,-1385.81C-2978,-1386.69 -2977.24,-1387.26 -2976.42,-1387.21C-2959.41,-1386.21 -2942.41,-1385.25 -2925.4,-1384.34C-2924.52,-1384.29 -2923.58,-1383.63 -2923.42,-1382.73C-2923.26,-1381.84 -2924.02,-1381.25 -2924.85,-1381.3C-2941.88,-1382.22 -2958.9,-1383.19 -2975.92,-1384.21Z" style="fill:#141501;"/>
                <path d="M-2973.41,-1369.1C-2974.29,-1369.15 -2975.21,-1369.82 -2975.36,-1370.72C-2975.5,-1371.6 -2974.74,-1372.18 -2973.91,-1372.13C-2956.83,-1371.07 -2939.74,-1370.06 -2922.65,-1369.09C-2921.76,-1369.04 -2920.82,-1368.37 -2920.66,-1367.46C-2920.5,-1366.57 -2921.26,-1365.97 -2922.1,-1366.02C-2939.2,-1367 -2956.31,-1368.02 -2973.41,-1369.1Z" style="fill:#141501;"/>
                <path d="M-2970.87,-1353.82C-2971.76,-1353.88 -2972.68,-1354.56 -2972.83,-1355.47C-2972.97,-1356.36 -2972.22,-1356.95 -2971.38,-1356.89C-2954.21,-1355.77 -2937.04,-1354.7 -2919.87,-1353.68C-2918.97,-1353.63 -2918.03,-1352.94 -2917.87,-1352.03C-2917.71,-1351.13 -2918.46,-1350.53 -2919.31,-1350.58C-2936.5,-1351.61 -2953.69,-1352.69 -2970.87,-1353.82Z" style="fill:#141501;"/>
                <path d="M-2968.3,-1338.39C-2969.2,-1338.45 -2970.12,-1339.14 -2970.27,-1340.06C-2970.42,-1340.95 -2969.66,-1341.55 -2968.82,-1341.49C-2951.57,-1340.31 -2934.32,-1339.19 -2917.06,-1338.11C-2916.15,-1338.05 -2915.21,-1337.36 -2915.05,-1336.43C-2914.88,-1335.53 -2915.64,-1334.92 -2916.49,-1334.97C-2933.77,-1336.06 -2951.04,-1337.2 -2968.3,-1338.39Z" style="fill:#141501;"/>
                <path d="M-2965.71,-1322.79C-2966.61,-1322.85 -2967.53,-1323.56 -2967.69,-1324.48C-2967.84,-1325.38 -2967.08,-1325.98 -2966.23,-1325.92C-2948.89,-1324.69 -2931.56,-1323.51 -2914.22,-1322.37C-2913.3,-1322.31 -2912.36,-1321.6 -2912.19,-1320.67C-2912.03,-1319.76 -2912.78,-1319.14 -2913.64,-1319.2C-2931,-1320.35 -2948.36,-1321.54 -2965.71,-1322.79Z" style="fill:#141501;"/>
                <path d="M-2932.54,-1304.79C-2933.07,-1304.82 -2934.3,-1305.04 -2934.55,-1306.51C-2934.64,-1306.99 -2934.45,-1307.36 -2934.29,-1307.55C-2933.93,-1307.96 -2933.49,-1308 -2933.09,-1307.98C-2925.84,-1307.46 -2918.59,-1306.96 -2911.34,-1306.46C-2910.8,-1306.42 -2909.57,-1306.21 -2909.31,-1304.74C-2909.22,-1304.25 -2909.4,-1303.88 -2909.57,-1303.69C-2909.93,-1303.27 -2910.37,-1303.23 -2910.76,-1303.26C-2918.02,-1303.76 -2925.28,-1304.27 -2932.54,-1304.79Z" style="fill:#141501;"/>
                <path d="M-2929.06,-1292.36C-2929.56,-1292.39 -2930.08,-1292.58 -2930.57,-1293.11C-2930.73,-1293.28 -2930.99,-1293.52 -2931.09,-1294.09C-2931.19,-1294.67 -2930.93,-1295.02 -2930.82,-1295.14C-2930.44,-1295.58 -2930.02,-1295.6 -2929.62,-1295.57C-2924.77,-1295.22 -2919.92,-1294.87 -2915.07,-1294.52C-2914.56,-1294.49 -2914.04,-1294.3 -2913.55,-1293.77C-2913.39,-1293.6 -2913.14,-1293.36 -2913.03,-1292.78C-2912.93,-1292.21 -2913.18,-1291.86 -2913.29,-1291.73C-2913.67,-1291.29 -2914.1,-1291.27 -2914.49,-1291.29C-2919.35,-1291.64 -2924.2,-1292 -2929.06,-1292.36Z" style="fill:#141501;"/>
            </g>
        </g>
    </g>
    <g id="Responsive">
        <g id="Responsive1" serif:id="Responsive">
            <g>
                <path d="M-3092.46,-1171.48C-3092.52,-1174.49 -3095.21,-1176.8 -3098.15,-1176.78C-3164.31,-1176.46 -3230.46,-1176.14 -3296.62,-1175.82C-3300.03,-1175.8 -3302.86,-1173.13 -3302.78,-1169.65C-3301.99,-1132.91 -3301.19,-1096.17 -3300.39,-1059.42C-3300.32,-1055.95 -3297.38,-1053.5 -3293.99,-1053.78C-3227.94,-1059.09 -3161.89,-1064.41 -3095.85,-1069.72C-3092.9,-1069.96 -3090.32,-1072.48 -3090.39,-1075.5C-3091.08,-1107.5 -3091.77,-1139.49 -3092.46,-1171.48Z" style="fill:url(#_Linear6);stroke:#141501;stroke-width:3.17px;"/>
                <path d="M-3099.66,-1165.41C-3099.71,-1167.95 -3101.98,-1170.08 -3104.68,-1170.06C-3166.08,-1169.47 -3227.48,-1168.88 -3288.89,-1168.3C-3291.97,-1168.27 -3294.63,-1165.87 -3294.57,-1162.9C-3293.88,-1130.88 -3293.19,-1098.86 -3292.5,-1066.84C-3292.43,-1063.88 -3289.66,-1061.71 -3286.6,-1061.94C-3225.28,-1066.59 -3163.96,-1071.24 -3102.65,-1075.88C-3099.94,-1076.09 -3097.78,-1078.39 -3097.84,-1080.94C-3098.44,-1109.1 -3099.05,-1137.26 -3099.66,-1165.41Z" style="fill:url(#_Linear7);stroke:#141501;stroke-width:2.86px;"/>
            </g>
            <g>
                <g>
                    <path d="M-3163.23,-1113.84C-3163.63,-1115.79 -3165.52,-1116.76 -3167.01,-1116.72C-3195.3,-1116.06 -3223.6,-1115.41 -3251.9,-1114.77C-3253.3,-1114.74 -3255.18,-1113.6 -3254.96,-1111.56C-3252.89,-1091.98 -3250.82,-1072.4 -3248.75,-1052.82C-3248.51,-1050.59 -3246.38,-1049.55 -3244.77,-1049.65C-3214.67,-1051.49 -3184.57,-1053.36 -3154.48,-1055.24C-3153.27,-1055.31 -3151.8,-1056.18 -3151.72,-1057.86C-3151.7,-1058.12 -3151.73,-1058.38 -3151.78,-1058.62C-3155.6,-1077.03 -3159.42,-1095.43 -3163.23,-1113.84Z" style="fill:url(#_Linear8);stroke:#141501;stroke-width:3.17px;"/>
                    <path d="M-3167.94,-1109.05C-3168.26,-1110.63 -3169.8,-1111.49 -3171.08,-1111.45C-3196.05,-1110.79 -3221.01,-1110.13 -3245.97,-1109.49C-3247.2,-1109.46 -3248.68,-1108.45 -3248.49,-1106.82C-3246.69,-1090.69 -3244.88,-1074.56 -3243.07,-1058.43C-3242.87,-1056.67 -3241.17,-1055.75 -3239.79,-1055.83C-3213.52,-1057.35 -3187.25,-1058.88 -3160.98,-1060.43C-3159.97,-1060.49 -3158.82,-1061.2 -3158.69,-1062.49C-3158.67,-1062.73 -3158.68,-1062.98 -3158.73,-1063.21C-3161.81,-1078.49 -3164.88,-1093.77 -3167.94,-1109.05Z" style="fill:url(#_Linear9);stroke:#141501;stroke-width:2.86px;"/>
                </g>
            </g>
            <g>
                <g>
                    <path d="M-3145.31,-1112.07C-3145.49,-1112.56 -3145.77,-1112.8 -3145.97,-1112.95C-3146.53,-1113.38 -3147.04,-1113.44 -3147.49,-1113.36C-3157.88,-1111.55 -3168.25,-1109.69 -3178.61,-1107.78C-3179.1,-1107.69 -3179.57,-1107.48 -3179.86,-1106.84C-3179.97,-1106.62 -3180.1,-1106.24 -3179.93,-1105.69C-3174.18,-1087.19 -3168.22,-1068.79 -3162.06,-1050.53C-3161.85,-1049.92 -3161.49,-1049.67 -3161.26,-1049.53C-3160.6,-1049.13 -3160.03,-1049.18 -3159.51,-1049.36C-3148.83,-1053.14 -3138.14,-1056.86 -3127.44,-1060.52C-3127.03,-1060.66 -3126.62,-1060.9 -3126.4,-1061.55C-3126.32,-1061.79 -3126.25,-1062.22 -3126.44,-1062.72C-3132.88,-1078.99 -3139.17,-1095.46 -3145.31,-1112.07Z" style="fill:url(#_Linear10);"/>
                    <path d="M-3142.83,-1112.51C-3139.8,-1104.41 -3136.73,-1096.34 -3133.63,-1088.32C-3132.37,-1085.04 -3131.09,-1081.76 -3129.81,-1078.48C-3129.16,-1076.83 -3128.53,-1075.16 -3127.86,-1073.53C-3126.45,-1070.11 -3124.93,-1066.89 -3123.48,-1063.55C-3122.91,-1062.26 -3123.23,-1061.17 -3123.45,-1060.62C-3123.93,-1059.43 -3124.69,-1058.86 -3125.46,-1058.41C-3125.77,-1058.23 -3126.09,-1058.06 -3126.42,-1057.94C-3137.17,-1054.17 -3147.89,-1050.28 -3158.68,-1046.61C-3159.48,-1046.34 -3160.32,-1046.22 -3161.22,-1046.34C-3161.83,-1046.42 -3162.46,-1046.59 -3163.13,-1046.99C-3163.71,-1047.33 -3164.59,-1047.95 -3165.1,-1049.46C-3168.82,-1060.67 -3172.47,-1071.94 -3176.05,-1083.24C-3178.33,-1090.46 -3180.58,-1097.7 -3182.92,-1104.89C-3183.3,-1106.04 -3183.09,-1106.94 -3182.91,-1107.49C-3182.87,-1107.62 -3182.82,-1107.75 -3182.77,-1107.86C-3182.01,-1109.63 -3180.76,-1110.25 -3179.45,-1110.48C-3174.1,-1111.42 -3168.74,-1112.36 -3163.38,-1113.28C-3160.84,-1113.71 -3158.27,-1114.03 -3155.77,-1114.63C-3153.28,-1115.21 -3150.85,-1116.01 -3148.4,-1116.75C-3148.17,-1116.82 -3147.93,-1116.86 -3147.69,-1116.88C-3147.47,-1116.9 -3147.25,-1116.89 -3147.03,-1116.86C-3145.96,-1116.72 -3144.58,-1116 -3143.36,-1113.58C-3143.18,-1113.23 -3142.98,-1112.93 -3142.83,-1112.51ZM-3145.31,-1112.07C-3145.49,-1112.56 -3145.77,-1112.8 -3145.97,-1112.95C-3146.53,-1113.38 -3147.04,-1113.44 -3147.49,-1113.36C-3157.88,-1111.55 -3168.25,-1109.69 -3178.61,-1107.78C-3179.1,-1107.69 -3179.57,-1107.48 -3179.86,-1106.84C-3179.97,-1106.62 -3180.1,-1106.24 -3179.93,-1105.69C-3174.18,-1087.19 -3168.22,-1068.79 -3162.06,-1050.53C-3161.85,-1049.92 -3161.49,-1049.67 -3161.26,-1049.53C-3160.6,-1049.13 -3160.03,-1049.18 -3159.51,-1049.36C-3148.83,-1053.14 -3138.14,-1056.86 -3127.44,-1060.52C-3127.03,-1060.66 -3126.62,-1060.9 -3126.4,-1061.55C-3126.32,-1061.79 -3126.25,-1062.22 -3126.44,-1062.72C-3132.88,-1078.99 -3139.17,-1095.46 -3145.31,-1112.07Z" style="fill:#141501;"/>
                    <path d="M-3148.62,-1108.09C-3157.01,-1106.5 -3165.4,-1104.87 -3173.77,-1103.21C-3168.65,-1087.25 -3163.38,-1071.38 -3157.97,-1055.63C-3149.38,-1058.53 -3140.79,-1061.39 -3132.18,-1064.21C-3137.77,-1078.68 -3143.25,-1093.32 -3148.62,-1108.09Z" style="fill:url(#_Linear11);"/>
                    <path d="M-3146.33,-1108.52C-3140.94,-1093.86 -3135.45,-1079.33 -3129.85,-1064.98C-3129.53,-1064.16 -3129.72,-1063.54 -3129.83,-1063.24C-3129.86,-1063.17 -3129.89,-1063.1 -3129.93,-1063.03C-3129.97,-1062.95 -3130.01,-1062.88 -3130.06,-1062.81C-3130.11,-1062.72 -3130.17,-1062.64 -3130.23,-1062.57C-3130.31,-1062.48 -3130.39,-1062.4 -3130.48,-1062.32C-3130.59,-1062.23 -3130.7,-1062.15 -3130.82,-1062.08C-3130.97,-1061.99 -3131.12,-1061.92 -3131.28,-1061.87C-3139.89,-1058.98 -3148.5,-1056.06 -3157.09,-1053.09C-3157.29,-1053.02 -3157.5,-1052.97 -3157.71,-1052.95C-3157.89,-1052.93 -3158.07,-1052.92 -3158.26,-1052.94C-3158.39,-1052.95 -3158.53,-1052.97 -3158.66,-1053C-3158.78,-1053.02 -3158.9,-1053.06 -3159.02,-1053.1C-3159.36,-1053.23 -3159.73,-1053.4 -3160.13,-1053.86C-3160.29,-1054.05 -3160.49,-1054.32 -3160.63,-1054.73C-3166.02,-1070.61 -3171.27,-1086.61 -3176.36,-1102.69C-3176.62,-1103.51 -3176.41,-1104.03 -3176.29,-1104.31C-3176.25,-1104.38 -3176.22,-1104.45 -3176.18,-1104.51C-3176.13,-1104.59 -3176.08,-1104.67 -3176.03,-1104.73C-3175.96,-1104.82 -3175.89,-1104.9 -3175.82,-1104.98C-3175.73,-1105.07 -3175.64,-1105.14 -3175.54,-1105.21C-3175.4,-1105.31 -3175.26,-1105.39 -3175.11,-1105.45C-3174.93,-1105.53 -3174.74,-1105.59 -3174.55,-1105.63C-3166.19,-1107.23 -3157.81,-1108.8 -3149.43,-1110.33C-3149.26,-1110.36 -3149.08,-1110.37 -3148.89,-1110.36C-3148.74,-1110.36 -3148.58,-1110.34 -3148.42,-1110.3C-3148.28,-1110.27 -3148.15,-1110.23 -3148.01,-1110.18C-3147.65,-1110.04 -3147.26,-1109.84 -3146.85,-1109.38C-3146.68,-1109.18 -3146.48,-1108.92 -3146.33,-1108.52ZM-3148.62,-1108.09C-3157.01,-1106.5 -3165.4,-1104.87 -3173.77,-1103.21C-3168.65,-1087.25 -3163.38,-1071.38 -3157.97,-1055.63C-3149.38,-1058.53 -3140.79,-1061.39 -3132.18,-1064.21C-3137.77,-1078.68 -3143.25,-1093.32 -3148.62,-1108.09Z" style="fill:#141501;"/>
                </g>
            </g>
        </g>
    </g>
    <g id="Website">
        <g>
            <g id="Website1" serif:id="Website">
                <path d="M-3850.61,-1204.82C-3875.22,-1208.36 -3900.02,-1211.37 -3924.98,-1213.83C-3940.11,-1215.33 -3955.29,-1216.67 -3970.53,-1217.65C-3989.98,-1218.89 -4009.49,-1219.84 -4029.01,-1220.68C-4035.44,-1220.96 -4041.86,-1221.22 -4048.29,-1221.49C-4051.45,-1221.61 -4054.69,-1221.64 -4057.83,-1221.88C-4059.19,-1213.91 -4058.73,-1205.93 -4058.57,-1197.96C-4058.34,-1186.68 -4057.98,-1175.4 -4057.47,-1164.13C-4055.84,-1128.1 -4052.61,-1092.12 -4046.68,-1056.34C-4045.11,-1046.85 -4043.35,-1037.38 -4041.38,-1027.94C-4039.86,-1020.69 -4037.98,-1013.5 -4037.55,-1006.17C-4034.71,-1006.65 -4031.89,-1007.25 -4029.08,-1007.79C-4022.57,-1009.04 -4016.06,-1010.28 -4009.54,-1011.51C-3989.33,-1015.34 -3969.07,-1019.05 -3948.66,-1022.4C-3936.72,-1024.36 -3924.68,-1026.01 -3912.61,-1027.56C-3894.98,-1029.83 -3877.26,-1031.78 -3859.49,-1033.42C-3862.78,-1090.49 -3860.86,-1147.85 -3850.61,-1204.82Z" style="fill:url(#_Linear12);"/>
                <path d="M-3847.1,-1204.45C-3849.18,-1190.62 -3851.41,-1176.78 -3853.01,-1162.93C-3856.15,-1135.9 -3857.51,-1108.82 -3857.54,-1081.77C-3857.55,-1071.41 -3857.51,-1061.04 -3856.97,-1050.7C-3856.68,-1045.01 -3856.42,-1039.31 -3855.81,-1033.62C-3855.68,-1032.43 -3855.97,-1031.13 -3857.1,-1030.12C-3857.57,-1029.7 -3858.37,-1029.22 -3859.21,-1029.17C-3873.05,-1028.39 -3886.87,-1027.29 -3900.57,-1025.69C-3914.34,-1024.08 -3927.91,-1021.93 -3941.48,-1019.69C-3973.67,-1014.39 -4005.5,-1008.15 -4037.45,-1002.23C-4039.82,-1001.79 -4041.12,-1003.6 -4041.46,-1004.77C-4041.54,-1005.06 -4041.59,-1005.35 -4041.61,-1005.65C-4042.04,-1013.46 -4044.01,-1021.13 -4045.57,-1028.86C-4047.57,-1038.78 -4049.37,-1048.73 -4050.93,-1058.69C-4056.09,-1091.73 -4058.96,-1124.93 -4060.45,-1158.17C-4061.08,-1172.33 -4061.46,-1186.51 -4061.65,-1200.68C-4061.74,-1207.81 -4062.1,-1214.92 -4060.75,-1222.03C-4060.53,-1223.19 -4059.32,-1224.7 -4057.24,-1224.67C-4041.38,-1224.47 -4025.53,-1224.12 -4009.72,-1223.36C-3995.47,-1222.68 -3981.26,-1221.73 -3967.07,-1220.74C-3955.36,-1219.91 -3943.66,-1219.02 -3932.01,-1217.93C-3916.96,-1216.52 -3901.99,-1214.79 -3887.09,-1212.92C-3874.69,-1211.36 -3862.39,-1209.54 -3850.04,-1207.86C-3847.7,-1207.54 -3846.89,-1205.84 -3847.1,-1204.45ZM-3850.61,-1204.82C-3875.22,-1208.36 -3900.02,-1211.37 -3924.98,-1213.83C-3940.11,-1215.33 -3955.29,-1216.67 -3970.53,-1217.65C-3989.98,-1218.89 -4009.49,-1219.84 -4029.01,-1220.68C-4035.44,-1220.96 -4041.86,-1221.22 -4048.29,-1221.49C-4051.45,-1221.61 -4054.69,-1221.64 -4057.83,-1221.88C-4059.19,-1213.91 -4058.73,-1205.93 -4058.57,-1197.96C-4058.34,-1186.68 -4057.98,-1175.4 -4057.47,-1164.13C-4055.84,-1128.1 -4052.61,-1092.12 -4046.68,-1056.34C-4045.11,-1046.85 -4043.35,-1037.38 -4041.38,-1027.94C-4039.86,-1020.69 -4037.98,-1013.5 -4037.55,-1006.17C-4034.71,-1006.65 -4031.89,-1007.25 -4029.08,-1007.79C-4022.57,-1009.04 -4016.06,-1010.28 -4009.54,-1011.51C-3989.33,-1015.34 -3969.07,-1019.05 -3948.66,-1022.4C-3936.72,-1024.36 -3924.68,-1026.01 -3912.61,-1027.56C-3894.98,-1029.83 -3877.26,-1031.78 -3859.49,-1033.42C-3862.78,-1090.49 -3860.86,-1147.85 -3850.61,-1204.82Z" style="fill:#141501;"/>
                <g>
                    <path d="M-3927.37,-1161.32C-3928.1,-1161.34 -3928.96,-1161.94 -3928.91,-1162.88C-3928.87,-1163.83 -3927.97,-1164.36 -3927.22,-1164.32C-3911.01,-1163.67 -3894.8,-1162.77 -3878.6,-1161.63C-3877.91,-1161.58 -3877.03,-1161.03 -3877.11,-1160.1C-3877.2,-1159.18 -3878.13,-1158.75 -3878.85,-1158.8C-3895.01,-1159.88 -3911.19,-1160.72 -3927.37,-1161.32Z" style="fill:#141501;"/>
                    <path d="M-3927.76,-1151.24C-3928.5,-1151.26 -3929.34,-1151.85 -3929.31,-1152.79C-3929.28,-1153.74 -3928.4,-1154.28 -3927.66,-1154.26C-3911.56,-1153.8 -3895.46,-1153.1 -3879.38,-1152.17C-3878.68,-1152.13 -3877.81,-1151.58 -3877.88,-1150.66C-3877.95,-1149.74 -3878.87,-1149.3 -3879.58,-1149.34C-3895.63,-1150.21 -3911.7,-1150.85 -3927.76,-1151.24Z" style="fill:#141501;"/>
                    <path d="M-3928.02,-1141.16C-3928.75,-1141.17 -3929.6,-1141.75 -3929.58,-1142.69C-3929.56,-1143.63 -3928.7,-1144.19 -3927.95,-1144.18C-3911.97,-1143.92 -3895.99,-1143.42 -3880.02,-1142.69C-3879.32,-1142.66 -3878.46,-1142.12 -3878.52,-1141.21C-3878.57,-1140.29 -3879.48,-1139.83 -3880.19,-1139.86C-3896.13,-1140.53 -3912.07,-1140.96 -3928.02,-1141.16Z" style="fill:#141501;"/>
                    <path d="M-3928.14,-1131.06C-3928.88,-1131.06 -3929.71,-1131.64 -3929.71,-1132.58C-3929.7,-1133.51 -3928.86,-1134.09 -3928.12,-1134.08C-3912.26,-1134.02 -3896.4,-1133.73 -3880.54,-1133.2C-3879.84,-1133.18 -3878.99,-1132.64 -3879.03,-1131.73C-3879.07,-1130.82 -3879.96,-1130.34 -3880.67,-1130.36C-3896.49,-1130.83 -3912.32,-1131.06 -3928.14,-1131.06Z" style="fill:#141501;"/>
                    <path d="M-3928.13,-1120.95C-3928.87,-1120.95 -3929.7,-1121.52 -3929.7,-1122.45C-3929.71,-1123.38 -3928.89,-1123.97 -3928.15,-1123.98C-3912.41,-1124.11 -3896.67,-1124.02 -3880.94,-1123.69C-3880.24,-1123.68 -3879.39,-1123.15 -3879.42,-1122.24C-3879.45,-1121.33 -3880.32,-1120.84 -3881.03,-1120.85C-3896.73,-1121.11 -3912.43,-1121.15 -3928.13,-1120.95Z" style="fill:#141501;"/>
                </g>
                <g>
                    <path d="M-4028.06,-1071.07C-4029.13,-1070.93 -4029.71,-1071.92 -4029.8,-1072.58C-4029.89,-1073.25 -4029.6,-1074.34 -4028.54,-1074.47C-4006.03,-1077.28 -3983.42,-1079.6 -3960.76,-1081.43C-3959.75,-1081.51 -3959.18,-1080.63 -3959.13,-1079.97C-3959.07,-1079.31 -3959.49,-1078.36 -3960.51,-1078.27C-3983.1,-1076.36 -4005.63,-1073.96 -4028.06,-1071.07Z" style="fill:#141501;"/>
                    <path d="M-4026.41,-1059.72C-4027.47,-1059.57 -4028.05,-1060.56 -4028.15,-1061.21C-4028.25,-1061.88 -4027.98,-1062.97 -4026.92,-1063.11C-4004.66,-1066.18 -3982.29,-1068.77 -3959.86,-1070.88C-3958.85,-1070.97 -3958.28,-1070.09 -3958.22,-1069.44C-3958.16,-1068.78 -3958.55,-1067.82 -3959.57,-1067.72C-3981.93,-1065.53 -4004.22,-1062.86 -4026.41,-1059.72Z" style="fill:#141501;"/>
                    <path d="M-4024.62,-1048.38C-4025.68,-1048.21 -4026.26,-1049.21 -4026.36,-1049.85C-4026.47,-1050.51 -4026.22,-1051.61 -4025.17,-1051.77C-4003.16,-1055.09 -3981.04,-1057.95 -3958.84,-1060.32C-3957.83,-1060.43 -3957.26,-1059.55 -3957.19,-1058.9C-3957.13,-1058.25 -3957.5,-1057.28 -3958.51,-1057.17C-3980.64,-1054.71 -4002.69,-1051.78 -4024.62,-1048.38Z" style="fill:#141501;"/>
                    <path d="M-4022.72,-1037.04C-4023.77,-1036.86 -4024.35,-1037.86 -4024.46,-1038.49C-4024.58,-1039.15 -4024.35,-1040.26 -4023.3,-1040.43C-4001.54,-1044.01 -3979.66,-1047.12 -3957.7,-1049.77C-3956.7,-1049.89 -3956.13,-1049 -3956.05,-1048.37C-3955.98,-1047.71 -3956.33,-1046.74 -3957.33,-1046.61C-3979.23,-1043.89 -4001.04,-1040.69 -4022.72,-1037.04Z" style="fill:#141501;"/>
                    <path d="M-4020.7,-1025.71C-4021.74,-1025.52 -4022.32,-1026.53 -4022.44,-1027.15C-4022.56,-1027.8 -4022.36,-1028.91 -4021.31,-1029.1C-3999.81,-1032.93 -3978.18,-1036.31 -3956.45,-1039.22C-3955.45,-1039.35 -3954.88,-1038.46 -3954.8,-1037.84C-3954.72,-1037.18 -3955.05,-1036.2 -3956.05,-1036.06C-3977.71,-1033.07 -3999.27,-1029.62 -4020.7,-1025.71Z" style="fill:#141501;"/>
                </g>
                <path d="M-3954.61,-1164.49C-3954.6,-1164.89 -3954.74,-1165.31 -3955.17,-1165.64C-3955.37,-1165.79 -3955.67,-1165.93 -3956.05,-1165.94C-3984.92,-1166.63 -4013.91,-1166.56 -4042.88,-1165.72C-4043.77,-1165.69 -4044.1,-1165.05 -4044.22,-1164.68C-4044.25,-1164.6 -4044.27,-1164.51 -4044.28,-1164.42C-4044.3,-1164.32 -4044.31,-1164.21 -4044.3,-1164.11C-4043.27,-1139.08 -4041.09,-1114.08 -4037.92,-1089.14C-4037.87,-1088.74 -4037.71,-1088.3 -4037.24,-1087.98C-4037.03,-1087.83 -4036.71,-1087.7 -4036.34,-1087.74C-4009.36,-1090.78 -3982.15,-1093.15 -3954.84,-1094.8C-3954.48,-1094.83 -3954.2,-1094.98 -3954.02,-1095.14C-3953.62,-1095.49 -3953.51,-1095.91 -3953.53,-1096.31C-3954.82,-1119.01 -3955.24,-1141.74 -3954.61,-1164.49Z" style="fill:url(#_Linear13);"/>
                <path d="M-3950.97,-1164.4C-3951.66,-1141.75 -3951.31,-1119.11 -3950.09,-1096.51C-3950.06,-1096.13 -3950.09,-1095.76 -3950.15,-1095.39C-3950.2,-1095.08 -3950.28,-1094.77 -3950.4,-1094.46C-3950.49,-1094.22 -3950.6,-1093.99 -3950.73,-1093.76C-3951.28,-1092.78 -3952.43,-1091.43 -3954.62,-1091.28C-3981.85,-1089.52 -4008.97,-1087.04 -4035.84,-1083.9C-4037.78,-1083.67 -4039.12,-1084.7 -4039.84,-1085.48C-4040.01,-1085.66 -4040.15,-1085.84 -4040.28,-1086.02C-4040.44,-1086.24 -4040.58,-1086.46 -4040.7,-1086.69C-4040.84,-1086.97 -4040.97,-1087.26 -4041.07,-1087.54C-4041.2,-1087.94 -4041.3,-1088.35 -4041.35,-1088.76C-4044.59,-1113.78 -4046.86,-1138.87 -4047.96,-1163.99C-4047.98,-1164.4 -4047.95,-1164.81 -4047.88,-1165.22C-4047.83,-1165.52 -4047.75,-1165.82 -4047.65,-1166.12C-4047.56,-1166.36 -4047.46,-1166.6 -4047.33,-1166.83C-4047.24,-1167.02 -4047.13,-1167.2 -4047,-1167.38C-4046.37,-1168.3 -4045.11,-1169.52 -4043.02,-1169.57C-4013.96,-1170.3 -3984.89,-1170.25 -3955.94,-1169.44C-3953.66,-1169.38 -3952.37,-1168.12 -3951.72,-1167.11C-3951.58,-1166.88 -3951.46,-1166.66 -3951.36,-1166.42C-3951.22,-1166.12 -3951.13,-1165.82 -3951.06,-1165.51C-3950.99,-1165.14 -3950.96,-1164.77 -3950.97,-1164.4ZM-3954.61,-1164.49C-3954.6,-1164.89 -3954.74,-1165.31 -3955.17,-1165.64C-3955.37,-1165.79 -3955.67,-1165.93 -3956.05,-1165.94C-3984.92,-1166.63 -4013.91,-1166.56 -4042.88,-1165.72C-4043.77,-1165.69 -4044.1,-1165.05 -4044.22,-1164.68C-4044.25,-1164.6 -4044.27,-1164.51 -4044.28,-1164.42C-4044.3,-1164.32 -4044.31,-1164.21 -4044.3,-1164.11C-4043.27,-1139.08 -4041.09,-1114.08 -4037.92,-1089.14C-4037.87,-1088.74 -4037.71,-1088.3 -4037.24,-1087.98C-4037.03,-1087.83 -4036.71,-1087.7 -4036.34,-1087.74C-4009.36,-1090.78 -3982.15,-1093.15 -3954.84,-1094.8C-3954.48,-1094.83 -3954.2,-1094.98 -3954.02,-1095.14C-3953.62,-1095.49 -3953.51,-1095.91 -3953.53,-1096.31C-3954.82,-1119.01 -3955.24,-1141.74 -3954.61,-1164.49Z" style="fill:#141501;"/>
                <path d="M-3850.72,-1204.2C-3850.69,-1204.38 -3850.73,-1204.55 -3850.91,-1204.72C-3850.99,-1204.79 -3850.98,-1204.87 -3851.36,-1204.92C-3872.96,-1208.02 -3896.27,-1210.95 -3922.12,-1213.55C-3930.56,-1214.39 -3939.27,-1215.2 -3948.3,-1215.97C-3953.05,-1216.37 -3957.82,-1216.77 -3962.84,-1217.13C-3970.01,-1217.64 -3977.59,-1218.1 -3985.2,-1218.53C-4008.2,-1219.84 -4032.65,-1220.85 -4057.12,-1221.85C-4057.25,-1221.85 -4057.34,-1221.82 -4057.37,-1221.81C-4057.53,-1221.76 -4057.6,-1221.71 -4057.66,-1221.66C-4057.91,-1221.46 -4057.93,-1221.27 -4057.96,-1221.08C-4058.91,-1215.12 -4058.77,-1209.19 -4058.67,-1203.25C-4058.55,-1196.6 -4058.4,-1189.94 -4058.19,-1183.29C-4058.18,-1183.09 -4058.14,-1182.88 -4057.94,-1182.68C-4057.9,-1182.64 -4058.01,-1182.5 -4057.54,-1182.49C-4054.41,-1182.43 -4050.97,-1182.53 -4047.66,-1182.58C-4043.15,-1182.64 -4038.64,-1182.69 -4034.16,-1182.71C-4020.08,-1182.8 -4006.27,-1182.7 -3992.93,-1182.44C-3969.88,-1182.01 -3948.29,-1181.12 -3928.25,-1179.95C-3901.83,-1178.42 -3877.99,-1176.41 -3856.07,-1174.17C-3855.78,-1174.14 -3855.62,-1174.25 -3855.59,-1174.27C-3855.31,-1174.42 -3855.28,-1174.57 -3855.26,-1174.71C-3853.99,-1184.54 -3852.48,-1194.37 -3850.72,-1204.2Z" style="fill:url(#_Linear14);"/>
                <path d="M-3847.19,-1203.84C-3848.66,-1194 -3850.1,-1184.17 -3851.5,-1174.34C-3851.62,-1173.47 -3851.94,-1172.6 -3853.48,-1171.71C-3853.56,-1171.66 -3853.65,-1171.62 -3853.75,-1171.57C-3853.83,-1171.53 -3853.93,-1171.49 -3854.03,-1171.44C-3854.11,-1171.41 -3854.21,-1171.37 -3854.32,-1171.34C-3854.38,-1171.32 -3854.44,-1171.29 -3854.51,-1171.27C-3854.58,-1171.26 -3854.64,-1171.24 -3854.72,-1171.22C-3855.1,-1171.12 -3855.74,-1171.03 -3856.46,-1171.1C-3878.31,-1173.24 -3902.09,-1175.14 -3928.39,-1176.57C-3948.43,-1177.65 -3969.99,-1178.45 -3992.93,-1178.8C-4006.28,-1179 -4020.07,-1179.04 -4034.08,-1178.9C-4038.56,-1178.86 -4043.06,-1178.79 -4047.56,-1178.71C-4050.87,-1178.65 -4054.25,-1178.54 -4057.41,-1178.59C-4058.19,-1178.61 -4058.36,-1178.76 -4058.54,-1178.83C-4059.19,-1179.09 -4059.49,-1179.37 -4059.77,-1179.65C-4061.02,-1180.88 -4061.29,-1182.14 -4061.32,-1183.4C-4061.49,-1190.07 -4061.6,-1196.75 -4061.68,-1203.42C-4061.75,-1209.38 -4061.82,-1215.34 -4060.87,-1221.33C-4060.74,-1222.15 -4060.46,-1222.98 -4059.3,-1223.83C-4059.23,-1223.88 -4059.16,-1223.93 -4059.08,-1223.98C-4059.01,-1224.02 -4058.93,-1224.07 -4058.85,-1224.11C-4058.78,-1224.15 -4058.7,-1224.19 -4058.61,-1224.24C-4058.56,-1224.26 -4058.51,-1224.29 -4058.45,-1224.31C-4058.25,-1224.4 -4057.69,-1224.68 -4056.49,-1224.66C-4044.09,-1224.5 -4032.02,-1224.21 -4020.47,-1223.79C-4016.38,-1223.64 -4012.3,-1223.49 -4008.39,-1223.3C-4004.22,-1223.09 -4000.29,-1222.84 -3996.28,-1222.61C-3983.76,-1221.87 -3971.54,-1221.08 -3959.79,-1220.21C-3950.04,-1219.49 -3940.54,-1218.72 -3931.53,-1217.89C-3928.05,-1217.56 -3924.75,-1217.21 -3921.44,-1216.87C-3915.07,-1216.2 -3908.86,-1215.52 -3902.78,-1214.81C-3884.28,-1212.67 -3867.06,-1210.37 -3850.81,-1207.97C-3850.09,-1207.86 -3849.74,-1207.73 -3849.4,-1207.59C-3848.73,-1207.33 -3848.43,-1207.06 -3848.15,-1206.78C-3847.21,-1205.82 -3847.04,-1204.83 -3847.19,-1203.84ZM-3850.72,-1204.2C-3850.69,-1204.38 -3850.73,-1204.55 -3850.91,-1204.72C-3850.99,-1204.79 -3850.98,-1204.87 -3851.36,-1204.92C-3872.96,-1208.02 -3896.27,-1210.95 -3922.12,-1213.55C-3930.56,-1214.39 -3939.27,-1215.2 -3948.3,-1215.97C-3953.05,-1216.37 -3957.82,-1216.77 -3962.84,-1217.13C-3970.01,-1217.64 -3977.59,-1218.1 -3985.2,-1218.53C-4008.2,-1219.84 -4032.65,-1220.85 -4057.12,-1221.85C-4057.25,-1221.85 -4057.34,-1221.82 -4057.37,-1221.81C-4057.53,-1221.76 -4057.6,-1221.71 -4057.66,-1221.66C-4057.91,-1221.46 -4057.93,-1221.27 -4057.96,-1221.08C-4058.91,-1215.12 -4058.77,-1209.19 -4058.67,-1203.25C-4058.55,-1196.6 -4058.4,-1189.94 -4058.19,-1183.29C-4058.18,-1183.09 -4058.14,-1182.88 -4057.94,-1182.68C-4057.9,-1182.64 -4058.01,-1182.5 -4057.54,-1182.49C-4054.41,-1182.43 -4050.97,-1182.53 -4047.66,-1182.58C-4043.15,-1182.64 -4038.64,-1182.69 -4034.16,-1182.71C-4020.08,-1182.8 -4006.27,-1182.7 -3992.93,-1182.44C-3969.88,-1182.01 -3948.29,-1181.12 -3928.25,-1179.95C-3901.83,-1178.42 -3877.99,-1176.41 -3856.07,-1174.17C-3855.78,-1174.14 -3855.62,-1174.25 -3855.59,-1174.27C-3855.31,-1174.42 -3855.28,-1174.57 -3855.26,-1174.71C-3853.99,-1184.54 -3852.48,-1194.37 -3850.72,-1204.2Z" style="fill:#141501;"/>
                <path d="M-3873.66,-1108.44C-3873.65,-1108.95 -3874.09,-1109.54 -3874.84,-1109.55C-3894.12,-1109.66 -3913.42,-1109.43 -3932.7,-1108.85C-3933.49,-1108.83 -3933.88,-1108.14 -3933.87,-1107.63C-3933.23,-1085.2 -3931.69,-1062.8 -3929.4,-1040.46C-3929.35,-1039.98 -3928.92,-1039.31 -3928.15,-1039.41C-3910.05,-1041.57 -3891.89,-1043.41 -3873.68,-1044.92C-3872.94,-1044.98 -3872.57,-1045.62 -3872.6,-1046.12C-3873.71,-1066.87 -3874.11,-1087.66 -3873.66,-1108.44Z" style="fill:url(#_Linear15);"/>
                <path d="M-3870.17,-1108.42C-3870.68,-1087.73 -3870.34,-1067.04 -3869.3,-1046.38C-3869.2,-1044.46 -3870.63,-1041.97 -3873.5,-1041.72C-3891.64,-1040.13 -3909.75,-1038.21 -3927.79,-1035.97C-3928.1,-1035.94 -3928.42,-1035.93 -3928.74,-1035.96C-3930.86,-1036.18 -3932.07,-1037.79 -3932.5,-1039.22C-3932.58,-1039.5 -3932.64,-1039.78 -3932.67,-1040.07C-3935.03,-1062.5 -3936.64,-1084.99 -3937.35,-1107.51C-3937.41,-1109.53 -3935.88,-1112.19 -3932.78,-1112.27C-3913.44,-1112.77 -3894.1,-1112.92 -3874.76,-1112.73C-3874.4,-1112.72 -3874.05,-1112.68 -3873.7,-1112.6C-3871.37,-1112.09 -3870.13,-1110.16 -3870.17,-1108.42ZM-3873.66,-1108.44C-3873.65,-1108.95 -3874.09,-1109.54 -3874.84,-1109.55C-3894.12,-1109.66 -3913.42,-1109.43 -3932.7,-1108.85C-3933.49,-1108.83 -3933.88,-1108.14 -3933.87,-1107.63C-3933.23,-1085.2 -3931.69,-1062.8 -3929.4,-1040.46C-3929.35,-1039.98 -3928.92,-1039.31 -3928.15,-1039.41C-3910.05,-1041.57 -3891.89,-1043.41 -3873.68,-1044.92C-3872.94,-1044.98 -3872.57,-1045.62 -3872.6,-1046.12C-3873.71,-1066.87 -3874.11,-1087.66 -3873.66,-1108.44Z" style="fill:#141501;"/>
                <path d="M-3898.78,-1204.3C-3894.82,-1203.88 -3890.86,-1203.13 -3886.97,-1201.94C-3884.21,-1201.09 -3881.45,-1200.04 -3878.84,-1198.47C-3878.43,-1198.22 -3878.02,-1197.96 -3877.62,-1197.68C-3877.31,-1197.46 -3877.01,-1197.23 -3876.7,-1196.99C-3875.48,-1195.99 -3873.58,-1194.28 -3873.9,-1191.92C-3874.06,-1190.74 -3874.76,-1189.88 -3875.44,-1189.25C-3876.87,-1187.94 -3878.55,-1187.25 -3880.2,-1186.68C-3883.03,-1185.71 -3885.93,-1185.22 -3888.83,-1184.93C-3892.89,-1184.52 -3896.97,-1184.53 -3901.04,-1184.87C-3905.06,-1185.2 -3909.08,-1185.84 -3913.03,-1186.96C-3915.79,-1187.74 -3918.54,-1188.72 -3921.14,-1190.26C-3921.56,-1190.5 -3921.96,-1190.76 -3922.36,-1191.03C-3922.68,-1191.25 -3922.99,-1191.48 -3923.29,-1191.73C-3924.56,-1192.76 -3926.37,-1194.49 -3926.14,-1196.87C-3925.91,-1199.29 -3923.9,-1200.58 -3922.49,-1201.38C-3922.15,-1201.58 -3921.81,-1201.75 -3921.46,-1201.92C-3921.01,-1202.13 -3920.56,-1202.32 -3920.11,-1202.5C-3917.2,-1203.61 -3914.18,-1204.14 -3911.17,-1204.43C-3907.05,-1204.83 -3902.9,-1204.74 -3898.78,-1204.3Z" style="fill:#cecece;"/>
                <path d="M-3898.34,-1207.55C-3892.89,-1206.95 -3887.44,-1205.77 -3882.15,-1203.68C-3879.16,-1202.5 -3876.15,-1201.11 -3873.51,-1198.73C-3871.8,-1197.18 -3869.76,-1194.66 -3870.2,-1191.51C-3870.67,-1188.16 -3873.31,-1186.34 -3875.36,-1185.22C-3878.41,-1183.55 -3881.68,-1182.78 -3884.93,-1182.23C-3890.37,-1181.3 -3895.88,-1181.17 -3901.36,-1181.6C-3906.76,-1182.03 -3912.17,-1182.98 -3917.43,-1184.86C-3920.47,-1185.94 -3923.54,-1187.26 -3926.23,-1189.6C-3928.07,-1191.2 -3930.17,-1193.82 -3929.86,-1197.16C-3929.53,-1200.68 -3926.94,-1202.77 -3924.83,-1204.04C-3921.76,-1205.88 -3918.42,-1206.69 -3915.11,-1207.25C-3909.56,-1208.19 -3903.93,-1208.17 -3898.34,-1207.55ZM-3898.78,-1204.3C-3902.9,-1204.74 -3907.05,-1204.83 -3911.17,-1204.43C-3914.18,-1204.14 -3917.2,-1203.61 -3920.11,-1202.5C-3920.56,-1202.32 -3921.01,-1202.13 -3921.46,-1201.92C-3921.81,-1201.75 -3922.15,-1201.58 -3922.49,-1201.38C-3923.9,-1200.58 -3925.91,-1199.29 -3926.14,-1196.87C-3926.37,-1194.49 -3924.56,-1192.76 -3923.29,-1191.73C-3922.99,-1191.48 -3922.68,-1191.25 -3922.36,-1191.03C-3921.96,-1190.76 -3921.56,-1190.5 -3921.14,-1190.26C-3918.54,-1188.72 -3915.79,-1187.74 -3913.03,-1186.96C-3909.08,-1185.84 -3905.06,-1185.2 -3901.04,-1184.87C-3896.97,-1184.53 -3892.89,-1184.52 -3888.83,-1184.93C-3885.93,-1185.22 -3883.03,-1185.71 -3880.2,-1186.68C-3878.55,-1187.25 -3876.87,-1187.94 -3875.44,-1189.25C-3874.76,-1189.88 -3874.06,-1190.74 -3873.9,-1191.92C-3873.58,-1194.28 -3875.48,-1195.99 -3876.7,-1196.99C-3877.01,-1197.23 -3877.31,-1197.46 -3877.62,-1197.68C-3878.02,-1197.96 -3878.43,-1198.22 -3878.84,-1198.47C-3881.45,-1200.04 -3884.21,-1201.09 -3886.97,-1201.94C-3890.86,-1203.13 -3894.82,-1203.88 -3898.78,-1204.3Z" style="fill:#141501;"/>
            </g>
        </g>
    </g>
    <g id="Polaroid">
    </g>
    <g id="Photos">
        <g>
            <g id="Photo">
                <g id="Objects">
                </g>
                <path d="M-3433.41,-1411.02C-3433.43,-1413.38 -3435.47,-1414.49 -3436.91,-1414.66C-3437.2,-1414.69 -3437.49,-1414.7 -3437.78,-1414.68C-3469.85,-1412.56 -3501.92,-1410.4 -3533.99,-1408.21C-3535.82,-1408.09 -3538.31,-1406.75 -3538.96,-1404.13C-3545.36,-1378.33 -3551.76,-1352.52 -3558.16,-1326.72C-3558.55,-1325.14 -3558.08,-1323.6 -3557.02,-1322.78C-3556.27,-1322.19 -3555.37,-1322 -3554.51,-1322.02C-3515.56,-1323.02 -3476.61,-1323.99 -3437.66,-1324.93C-3437.26,-1324.93 -3436.86,-1324.99 -3436.47,-1325.09C-3434.68,-1325.53 -3432.4,-1327.24 -3432.45,-1330.13C-3432.85,-1357.09 -3433.18,-1384.05 -3433.41,-1411.02Z" style="fill:none;stroke:#141501;stroke-width:4.17px;"/>
            </g>
            <g id="Photo1" serif:id="Photo">
                <g id="Objects1" serif:id="Objects">
                </g>
                <path d="M-3417.87,-1404.21C-3419.59,-1406.57 -3422.54,-1406.21 -3424.08,-1405.27C-3455.35,-1386.19 -3486.97,-1367.72 -3518.91,-1349.82C-3519.25,-1349.62 -3519.58,-1349.4 -3519.88,-1349.15C-3520.13,-1348.94 -3520.37,-1348.7 -3520.6,-1348.45C-3521.54,-1347.36 -3522.56,-1345.42 -3521.68,-1343.41C-3509.97,-1316.54 -3497.26,-1289.99 -3483.74,-1263.82C-3482.24,-1260.9 -3478.99,-1260.64 -3477.06,-1261.29C-3476.67,-1261.42 -3476.31,-1261.59 -3475.96,-1261.78C-3438.79,-1282.88 -3402.12,-1304.86 -3366.03,-1327.78C-3365.19,-1328.31 -3364.49,-1329.12 -3364.15,-1330.2C-3363.69,-1331.64 -3364,-1333.47 -3365.15,-1334.92C-3383.16,-1357.6 -3400.78,-1380.67 -3417.87,-1404.21Z" style="fill:none;stroke:#141501;stroke-width:4.17px;"/>
            </g>
            <g id="Photo2" serif:id="Photo">
                <g id="Objects2" serif:id="Objects">
                </g>
                <path d="M-3417.66,-1470.56C-3418.75,-1472.2 -3420.77,-1472.21 -3421.97,-1471.85C-3422.25,-1471.77 -3422.51,-1471.67 -3422.77,-1471.54C-3449.97,-1457.56 -3477.34,-1443.94 -3504.84,-1430.58C-3505.13,-1430.44 -3505.41,-1430.27 -3505.67,-1430.08C-3505.89,-1429.92 -3506.1,-1429.74 -3506.3,-1429.55C-3507.1,-1428.76 -3508.1,-1427.28 -3507.5,-1425.64C-3499.65,-1404.36 -3491.28,-1383.21 -3482.39,-1362.26C-3481.36,-1359.82 -3478.69,-1359.66 -3477.17,-1360.09C-3476.85,-1360.18 -3476.54,-1360.3 -3476.24,-1360.45C-3444.06,-1376.29 -3412.11,-1392.6 -3380.43,-1409.45C-3378.91,-1410.26 -3377.4,-1412.66 -3379.1,-1415.03C-3392.23,-1433.29 -3405.1,-1451.79 -3417.66,-1470.56Z" style="fill:none;stroke:#141501;stroke-width:4.17px;"/>
            </g>
            <g id="Photo3" serif:id="Photo">
                <g id="Objects3" serif:id="Objects">
                </g>
                <path d="M-3339.83,-1401.5C-3339.72,-1404.09 -3341.87,-1405.63 -3343.44,-1406.19C-3343.8,-1406.31 -3344.16,-1406.4 -3344.54,-1406.46C-3378.73,-1411.6 -3412.93,-1416.73 -3447.13,-1421.83C-3448.82,-1422.08 -3451.53,-1421.28 -3452.32,-1418.66C-3459.99,-1393.19 -3467.92,-1367.8 -3476.15,-1342.53C-3477.18,-1339.38 -3474.87,-1337.22 -3472.91,-1336.82C-3432.26,-1328.36 -3391.58,-1319.98 -3350.9,-1311.65C-3350.51,-1311.58 -3350.12,-1311.53 -3349.72,-1311.52C-3347.82,-1311.49 -3344.9,-1312.63 -3344.67,-1315.78C-3342.62,-1344.39 -3340.99,-1372.97 -3339.83,-1401.5Z" style="fill:none;stroke:#141501;stroke-width:4.17px;"/>
            </g>
        </g>
    </g>
    <g id="Photo4" serif:id="Photo">
    </g>
    <g>
        <g>
            <g>
                <path d="M-3771.3,-1077.66C-3780.58,-1091.82 -3786.3,-1110.1 -3786.96,-1129.28C-3787.24,-1137.42 -3786.62,-1145.69 -3785.04,-1153.71C-3783.78,-1160.13 -3781.91,-1166.39 -3779.47,-1172.26C-3777.47,-1177.07 -3775.1,-1181.63 -3772.4,-1185.83C-3769.9,-1189.72 -3767.13,-1193.33 -3764.14,-1196.57C-3747.91,-1214.19 -3726.32,-1220.02 -3706.44,-1217.27C-3702.57,-1216.73 -3698.72,-1215.88 -3694.94,-1214.75C-3689.77,-1213.19 -3684.71,-1211.12 -3679.81,-1208.54C-3675.84,-1206.45 -3671.98,-1204.03 -3668.26,-1201.3C-3665.3,-1199.11 -3662.42,-1196.72 -3659.65,-1194.13C-3645.27,-1180.66 -3632.78,-1160.67 -3631.45,-1136.17C-3631.27,-1132.81 -3631.3,-1129.41 -3631.56,-1126.02C-3631.82,-1122.51 -3632.31,-1119.02 -3633.03,-1115.59C-3638.51,-1089.34 -3655.78,-1069.48 -3673.93,-1058.08C-3677.42,-1055.88 -3681.01,-1053.97 -3684.66,-1052.34C-3689.3,-1050.26 -3694.03,-1048.65 -3698.81,-1047.52C-3712.78,-1044.2 -3727.19,-1045.02 -3740.37,-1050.76C-3758.28,-1037.26 -3775.83,-1022.84 -3792.91,-1007.48C-3786.52,-1031.24 -3779.3,-1054.66 -3771.3,-1077.66Z" style="fill:url(#_Radial16);"/>
                <path d="M-3775.63,-1076.89C-3784.76,-1091.48 -3790.37,-1109.99 -3791.07,-1129.37C-3791.39,-1137.95 -3790.75,-1146.67 -3789.11,-1155.13C-3787.79,-1161.89 -3785.83,-1168.49 -3783.27,-1174.68C-3781.17,-1179.74 -3778.68,-1184.54 -3775.84,-1188.96C-3773.21,-1193.05 -3770.3,-1196.83 -3767.16,-1200.23C-3750.12,-1218.67 -3727.45,-1224.59 -3706.65,-1221.46C-3702.6,-1220.85 -3698.58,-1219.91 -3694.64,-1218.68C-3689.25,-1217 -3683.97,-1214.76 -3678.88,-1212.01C-3674.75,-1209.78 -3670.74,-1207.21 -3666.89,-1204.32C-3663.94,-1202.1 -3661.08,-1199.7 -3658.33,-1197.1C-3643.36,-1182.97 -3630.32,-1162.07 -3629,-1136.46C-3628.83,-1132.99 -3628.87,-1129.48 -3629.14,-1125.98C-3629.42,-1122.35 -3629.93,-1118.75 -3630.68,-1115.2C-3636.38,-1088.05 -3654.18,-1067.43 -3672.92,-1055.46C-3676.54,-1053.15 -3680.25,-1051.13 -3684.03,-1049.4C-3688.84,-1047.2 -3693.75,-1045.47 -3698.71,-1044.24C-3712.63,-1040.78 -3727,-1041.26 -3740.29,-1046.47C-3757.51,-1033.24 -3774.39,-1019.15 -3790.82,-1004.18C-3792.29,-1002.84 -3794.05,-1002.95 -3795.64,-1003.47C-3797.2,-1003.98 -3798.54,-1005.83 -3797.49,-1007.98C-3796.74,-1009.5 -3796,-1011.02 -3795.41,-1012.65C-3794.38,-1015.5 -3793.79,-1018.55 -3792.96,-1021.48C-3791.73,-1025.86 -3790.47,-1030.22 -3789.18,-1034.57C-3784.95,-1048.82 -3780.43,-1062.93 -3775.63,-1076.89ZM-3771.3,-1077.66C-3779.3,-1054.66 -3786.52,-1031.24 -3792.91,-1007.48C-3775.83,-1022.84 -3758.28,-1037.26 -3740.37,-1050.76C-3727.19,-1045.02 -3712.78,-1044.2 -3698.81,-1047.52C-3694.03,-1048.65 -3689.3,-1050.26 -3684.66,-1052.34C-3681.01,-1053.97 -3677.42,-1055.88 -3673.93,-1058.08C-3655.78,-1069.48 -3638.51,-1089.34 -3633.03,-1115.59C-3632.31,-1119.02 -3631.82,-1122.51 -3631.56,-1126.02C-3631.3,-1129.41 -3631.27,-1132.81 -3631.45,-1136.17C-3632.78,-1160.67 -3645.27,-1180.66 -3659.65,-1194.13C-3662.42,-1196.72 -3665.3,-1199.11 -3668.26,-1201.3C-3671.98,-1204.03 -3675.84,-1206.45 -3679.81,-1208.54C-3684.71,-1211.12 -3689.77,-1213.19 -3694.94,-1214.75C-3698.72,-1215.88 -3702.57,-1216.73 -3706.44,-1217.27C-3726.32,-1220.02 -3747.91,-1214.19 -3764.14,-1196.57C-3767.13,-1193.33 -3769.9,-1189.72 -3772.4,-1185.83C-3775.1,-1181.63 -3777.47,-1177.07 -3779.47,-1172.26C-3781.91,-1166.39 -3783.78,-1160.13 -3785.04,-1153.71C-3786.62,-1145.69 -3787.24,-1137.42 -3786.96,-1129.28C-3786.3,-1110.1 -3780.58,-1091.82 -3771.3,-1077.66Z" style="fill:#141501;"/>
                <path d="M-3730,-1129.81C-3725.39,-1129.68 -3722.13,-1125.2 -3722.13,-1120.83C-3722.13,-1116.51 -3725.35,-1112.06 -3729.91,-1111.94C-3734.64,-1111.81 -3737.98,-1116.4 -3738.02,-1120.83C-3738.07,-1125.28 -3734.74,-1129.93 -3730,-1129.81Z" style="fill:#525252;"/>
                <path d="M-3730,-1132.27C-3724.14,-1132.06 -3720.02,-1126.38 -3720.03,-1120.82C-3720.03,-1115.35 -3724.1,-1109.72 -3729.89,-1109.53C-3735.95,-1109.33 -3740.18,-1115.19 -3740.25,-1120.83C-3740.31,-1126.5 -3736.1,-1132.48 -3730,-1132.27ZM-3730,-1129.81C-3734.74,-1129.93 -3738.07,-1125.28 -3738.02,-1120.83C-3737.98,-1116.4 -3734.64,-1111.81 -3729.91,-1111.94C-3725.35,-1112.06 -3722.13,-1116.51 -3722.13,-1120.83C-3722.13,-1125.2 -3725.39,-1129.68 -3730,-1129.81Z" style="fill:#141501;"/>
                <path d="M-3700.47,-1129.01C-3696.26,-1128.9 -3693.39,-1124.78 -3693.47,-1120.81C-3693.55,-1116.86 -3696.54,-1112.79 -3700.72,-1112.69C-3705.03,-1112.58 -3707.99,-1116.8 -3707.95,-1120.82C-3707.9,-1124.88 -3704.82,-1129.13 -3700.47,-1129.01Z" style="fill:#525252;"/>
                <path d="M-3700.42,-1131.26C-3695.09,-1131.08 -3691.44,-1125.85 -3691.55,-1120.81C-3691.67,-1115.8 -3695.45,-1110.66 -3700.75,-1110.49C-3706.27,-1110.31 -3710.02,-1115.7 -3709.97,-1120.82C-3709.93,-1126.01 -3706,-1131.45 -3700.42,-1131.26ZM-3700.47,-1129.01C-3704.82,-1129.13 -3707.9,-1124.88 -3707.95,-1120.82C-3707.99,-1116.8 -3705.03,-1112.58 -3700.72,-1112.69C-3696.54,-1112.79 -3693.55,-1116.86 -3693.47,-1120.81C-3693.39,-1124.78 -3696.26,-1128.9 -3700.47,-1129.01Z" style="fill:#141501;"/>
                <path d="M-3673.87,-1128.32C-3670.02,-1128.22 -3667.51,-1124.4 -3667.66,-1120.81C-3667.81,-1117.18 -3670.56,-1113.44 -3674.41,-1113.35C-3678.35,-1113.25 -3680.93,-1117.16 -3680.82,-1120.81C-3680.71,-1124.53 -3677.87,-1128.42 -3673.87,-1128.32Z" style="fill:#525252;"/>
                <path d="M-3673.79,-1130.38C-3668.93,-1130.22 -3665.72,-1125.38 -3665.91,-1120.81C-3666.11,-1116.21 -3669.62,-1111.48 -3674.47,-1111.33C-3679.49,-1111.17 -3682.8,-1116.15 -3682.67,-1120.81C-3682.53,-1125.56 -3678.89,-1130.54 -3673.79,-1130.38ZM-3673.87,-1128.32C-3677.87,-1128.42 -3680.71,-1124.53 -3680.82,-1120.81C-3680.93,-1117.16 -3678.35,-1113.25 -3674.41,-1113.35C-3670.56,-1113.44 -3667.81,-1117.18 -3667.66,-1120.81C-3667.51,-1124.4 -3670.02,-1128.22 -3673.87,-1128.32Z" style="fill:#141501;"/>
            </g>
        </g>
    </g>
    <g id="QR-iMVentions.com" serif:id="QR iMVentions.com">
    </g>
    <g id="QR-mike-imventions.com" serif:id="QR mike@imventions.com">
    </g>
    <g id="Frames">
    </g>
    <g>
        <g>
            <path d="M-3507.47,-1790.61C-3504.77,-1791.5 -3501.63,-1791.38 -3500.18,-1788.61C-3499.94,-1788.15 -3499.74,-1787.64 -3499.66,-1787.12C-3496.49,-1788.18 -3492.46,-1787.63 -3491.34,-1784.11C-3490.27,-1780.78 -3493.45,-1778.65 -3496.43,-1778.14C-3495.05,-1776 -3494.65,-1772.86 -3497.47,-1771.79C-3499.97,-1770.83 -3502.83,-1772.19 -3504.53,-1774.04C-3504.9,-1773.8 -3505.34,-1773.63 -3505.77,-1773.52C-3508.34,-1772.83 -3510.42,-1774.41 -3511.66,-1776.51C-3512.96,-1778.69 -3514.29,-1782.18 -3511.58,-1783.91C-3511.22,-1784.14 -3510.8,-1784.34 -3510.37,-1784.43C-3511.31,-1787.05 -3510.14,-1789.73 -3507.47,-1790.61Z" style="fill:url(#_Radial17);"/>
            <path d="M-3491.82,-1775.97C-3491.51,-1774.14 -3491.91,-1772.63 -3492.71,-1771C-3493.41,-1769.56 -3494.54,-1768.38 -3495.99,-1767.65C-3498.19,-1766.53 -3500.66,-1766.73 -3502.82,-1767.88C-3503.64,-1768.33 -3504.41,-1768.89 -3505.11,-1769.51C-3506.15,-1769.21 -3507.26,-1769.15 -3508.33,-1769.4C-3511.09,-1770.04 -3513.36,-1772.51 -3514.74,-1774.83C-3516.28,-1777.42 -3517.45,-1780.62 -3516.36,-1783.6C-3515.95,-1784.72 -3515.22,-1785.7 -3514.28,-1786.44C-3514.36,-1790.08 -3512.23,-1792.88 -3508.75,-1794.03C-3505.76,-1795.02 -3502.45,-1795.14 -3499.76,-1793.34C-3498.89,-1792.77 -3498.16,-1792.02 -3497.58,-1791.17C-3497.07,-1791.21 -3496.57,-1791.21 -3496.06,-1791.19C-3492.17,-1790.99 -3489.03,-1788.82 -3487.84,-1785.09C-3487.59,-1784.28 -3487.43,-1783.44 -3487.41,-1782.59C-3487.36,-1779.85 -3489.03,-1777.63 -3491.33,-1776.25C-3491.49,-1776.15 -3491.65,-1776.06 -3491.82,-1775.97ZM-3507.47,-1790.61C-3510.14,-1789.73 -3511.31,-1787.05 -3510.37,-1784.43C-3510.8,-1784.34 -3511.22,-1784.14 -3511.58,-1783.91C-3514.29,-1782.18 -3512.96,-1778.69 -3511.66,-1776.51C-3510.42,-1774.41 -3508.34,-1772.83 -3505.77,-1773.52C-3505.34,-1773.63 -3504.9,-1773.8 -3504.53,-1774.04C-3502.83,-1772.19 -3499.97,-1770.83 -3497.47,-1771.79C-3494.65,-1772.86 -3495.05,-1776 -3496.43,-1778.14C-3493.45,-1778.65 -3490.27,-1780.78 -3491.34,-1784.11C-3492.46,-1787.63 -3496.49,-1788.18 -3499.66,-1787.12C-3499.74,-1787.64 -3499.94,-1788.15 -3500.18,-1788.61C-3501.63,-1791.38 -3504.77,-1791.5 -3507.47,-1790.61Z"/>
            <path d="M-3457.8,-1971.62C-3446.05,-1974.18 -3425.66,-1973.74 -3423.27,-1958.63C-3417.32,-1966.16 -3407.08,-1968.29 -3399.44,-1962.14C-3391.59,-1955.83 -3390.02,-1944.53 -3393.73,-1935.52C-3382.56,-1936.77 -3372.98,-1930.09 -3372.44,-1919.04C-3371.76,-1905.39 -3381.89,-1894.19 -3396.29,-1893.32C-3387.38,-1887.26 -3386.7,-1875.7 -3391.7,-1866.99C-3397.43,-1856.98 -3409.73,-1855.1 -3419.74,-1859.97C-3419.73,-1849.77 -3430.51,-1843.54 -3439.62,-1841.94C-3448.04,-1840.47 -3457.59,-1843.67 -3460.77,-1851.92C-3466.16,-1845.49 -3475.7,-1844.33 -3483.16,-1847.31C-3495.37,-1852.16 -3496.93,-1865.4 -3491.12,-1876.06C-3503.28,-1874.88 -3518.38,-1879.34 -3520.51,-1892.42C-3521.72,-1899.83 -3518.16,-1907.89 -3510.49,-1910.75C-3514.35,-1918.78 -3515.3,-1929.59 -3510.47,-1937.54C-3504.42,-1947.51 -3490.42,-1946.78 -3480.93,-1942.61C-3486.14,-1958 -3471.58,-1968.62 -3457.8,-1971.62Z" style="fill:url(#_Radial18);"/>
            <path d="M-3458.46,-1975.79C-3449.12,-1977.84 -3438.46,-1978.49 -3429.9,-1973.8C-3426.42,-1971.89 -3423.48,-1969.14 -3421.49,-1965.78C-3418.21,-1968.17 -3414.35,-1969.93 -3410.24,-1970.23C-3405.16,-1970.6 -3400.42,-1968.69 -3396.59,-1965.61C-3388.7,-1959.26 -3386.46,-1949.25 -3388.31,-1939.66C-3376.6,-1938.52 -3368.75,-1931.06 -3368.21,-1919.62C-3367.89,-1912.78 -3369.49,-1905.84 -3373.93,-1900.32C-3377.54,-1895.84 -3382.69,-1892.77 -3388.2,-1890.97C-3382.65,-1882.98 -3383.47,-1873.38 -3388.2,-1865.17C-3392.64,-1857.46 -3400.37,-1852.99 -3409.59,-1853.45C-3412.04,-1853.57 -3414.46,-1854.01 -3416.81,-1854.67C-3417.74,-1851.97 -3419.21,-1849.44 -3421.12,-1847.27C-3425.65,-1842.1 -3432.27,-1839.32 -3439.03,-1838.15C-3447.73,-1836.63 -3456.39,-1838.97 -3461.76,-1846C-3468.56,-1841.28 -3477.01,-1840.75 -3484.57,-1843.76C-3496.97,-1848.71 -3500.4,-1860.22 -3496.8,-1872.13C-3501.4,-1872.37 -3506.03,-1873.16 -3510.28,-1874.89C-3517.79,-1877.95 -3523.02,-1883.96 -3524.32,-1891.83C-3525.67,-1899.95 -3522.66,-1907.86 -3515.4,-1912.61C-3518.24,-1921.31 -3518.82,-1931.46 -3513.87,-1939.65C-3510.16,-1945.79 -3503.71,-1949.15 -3496.5,-1949.58C-3492.91,-1949.79 -3489.3,-1949.34 -3485.82,-1948.52C-3485.83,-1952.64 -3484.87,-1956.76 -3482.83,-1960.42C-3477.95,-1969.19 -3468.09,-1973.68 -3458.46,-1975.79ZM-3457.8,-1971.62C-3471.58,-1968.62 -3486.14,-1958 -3480.93,-1942.61C-3490.42,-1946.78 -3504.42,-1947.51 -3510.47,-1937.54C-3515.3,-1929.59 -3514.35,-1918.78 -3510.49,-1910.75C-3518.16,-1907.89 -3521.72,-1899.83 -3520.51,-1892.42C-3518.38,-1879.34 -3503.28,-1874.88 -3491.12,-1876.06C-3496.93,-1865.4 -3495.37,-1852.16 -3483.16,-1847.31C-3475.7,-1844.33 -3466.16,-1845.49 -3460.77,-1851.92C-3457.59,-1843.67 -3448.04,-1840.47 -3439.62,-1841.94C-3430.51,-1843.54 -3419.73,-1849.77 -3419.74,-1859.97C-3409.73,-1855.1 -3397.43,-1856.98 -3391.7,-1866.99C-3386.7,-1875.7 -3387.38,-1887.26 -3396.29,-1893.32C-3381.89,-1894.19 -3371.76,-1905.39 -3372.44,-1919.04C-3372.98,-1930.09 -3382.56,-1936.77 -3393.73,-1935.52C-3390.02,-1944.53 -3391.59,-1955.83 -3399.44,-1962.14C-3407.08,-1968.29 -3417.32,-1966.16 -3423.27,-1958.63C-3425.66,-1973.74 -3446.05,-1974.18 -3457.8,-1971.62Z"/>
            <path d="M-3485.63,-1831.65C-3481.09,-1833.18 -3475.66,-1833.15 -3473.24,-1828.48C-3472.84,-1827.72 -3472.51,-1826.86 -3472.39,-1826.01C-3467.05,-1827.82 -3460.06,-1827.09 -3458.25,-1821.15C-3456.55,-1815.56 -3462.08,-1811.96 -3467.17,-1811.04C-3465.38,-1806.97 -3464.35,-1800.08 -3469.68,-1798.05C-3474.36,-1796.27 -3478.88,-1800.46 -3481.05,-1804.05C-3484.56,-1801.55 -3490.03,-1800.07 -3493.67,-1803.09C-3494.51,-1803.79 -3495.19,-1804.65 -3495.75,-1805.58C-3497.96,-1809.28 -3498.8,-1813.76 -3495.97,-1817.37C-3495.32,-1818.2 -3494.53,-1818.93 -3493.68,-1819.57C-3492.78,-1820.23 -3491.78,-1820.85 -3490.72,-1821.24C-3492.28,-1825.66 -3490.16,-1830.12 -3485.63,-1831.65Z" style="fill:url(#_Radial19);"/>
            <path d="M-3486.88,-1835.23C-3482.61,-1836.67 -3477.69,-1837.11 -3473.76,-1834.57C-3472.15,-1833.53 -3470.88,-1832.06 -3469.99,-1830.41C-3468.74,-1830.59 -3467.46,-1830.68 -3466.19,-1830.64C-3460.65,-1830.44 -3456.18,-1827.48 -3454.6,-1822.25C-3453.06,-1817.16 -3455.26,-1812.6 -3459.84,-1809.87C-3460.68,-1809.37 -3461.57,-1808.94 -3462.48,-1808.58C-3462.11,-1806.92 -3461.9,-1805.21 -3462.01,-1803.51C-3462.27,-1799.54 -3464.37,-1796.12 -3468.3,-1794.62C-3471.79,-1793.3 -3475.46,-1794.08 -3478.47,-1796.11C-3479.79,-1797.01 -3480.97,-1798.11 -3482.02,-1799.29C-3483.18,-1798.77 -3484.39,-1798.35 -3485.65,-1798.07C-3491.19,-1796.86 -3496.07,-1799.04 -3498.91,-1803.78C-3500.9,-1807.09 -3502.1,-1810.94 -3501.27,-1814.77C-3500.5,-1818.33 -3497.95,-1821.23 -3494.88,-1823.24C-3495.38,-1828.79 -3492.39,-1833.36 -3486.88,-1835.23ZM-3485.63,-1831.65C-3490.16,-1830.12 -3492.28,-1825.66 -3490.72,-1821.24C-3491.78,-1820.85 -3492.78,-1820.23 -3493.68,-1819.57C-3494.53,-1818.93 -3495.32,-1818.2 -3495.97,-1817.37C-3498.8,-1813.76 -3497.96,-1809.28 -3495.75,-1805.58C-3495.19,-1804.65 -3494.51,-1803.79 -3493.67,-1803.09C-3490.03,-1800.07 -3484.56,-1801.55 -3481.05,-1804.05C-3478.88,-1800.46 -3474.36,-1796.27 -3469.68,-1798.05C-3464.35,-1800.08 -3465.38,-1806.97 -3467.17,-1811.04C-3462.08,-1811.96 -3456.55,-1815.56 -3458.25,-1821.15C-3460.06,-1827.09 -3467.05,-1827.82 -3472.39,-1826.01C-3472.51,-1826.86 -3472.84,-1827.72 -3473.24,-1828.48C-3475.66,-1833.15 -3481.09,-1833.18 -3485.63,-1831.65Z"/>
            <path d="M-3449.25,-1887.86C-3446.38,-1887.88 -3443.54,-1887.17 -3441.12,-1885.59C-3439.33,-1884.41 -3437.64,-1882.66 -3437.72,-1880.35C-3437.8,-1878 -3439.61,-1876.26 -3441.47,-1875.09C-3443.93,-1873.54 -3446.77,-1872.8 -3449.67,-1872.8C-3452.5,-1872.81 -3455.3,-1873.51 -3457.69,-1875.07C-3459.5,-1876.25 -3461.14,-1878 -3461.09,-1880.31C-3461.04,-1882.64 -3459.29,-1884.37 -3457.45,-1885.54C-3455,-1887.11 -3452.14,-1887.85 -3449.25,-1887.86ZM-3444.73,-1892.44L-3448.45,-1892.42C-3448.54,-1893.37 -3448.64,-1894.33 -3448.61,-1895.29C-3448.49,-1899.41 -3447.05,-1903.28 -3444.53,-1906.53C-3442.89,-1908.66 -3441.13,-1911.29 -3441.03,-1914.09C-3440.86,-1919.43 -3445.45,-1921.09 -3450.07,-1921.01C-3455.48,-1920.92 -3458.5,-1917.47 -3458.62,-1912.17C-3458.67,-1909.76 -3457.61,-1907.61 -3455.84,-1906.01C-3457.98,-1905.31 -3460.22,-1905.01 -3462.47,-1904.99C-3468.6,-1904.92 -3477.08,-1906.25 -3477,-1913.95C-3476.95,-1918.85 -3472.95,-1922.27 -3468.98,-1924.46C-3463.03,-1927.76 -3456.16,-1929 -3449.41,-1929.13C-3441.97,-1929.27 -3434.41,-1928.01 -3427.76,-1924.52C-3423.39,-1922.22 -3418.6,-1918.5 -3418.86,-1913.02C-3419.26,-1904.29 -3430.97,-1901.23 -3437.79,-1899.68C-3441.55,-1898.84 -3444.36,-1896.41 -3444.73,-1892.44Z" style="fill:#404040;fill-rule:nonzero;"/>
        </g>
    </g>
    <g id="Brand-Building" serif:id="Brand Building">
    </g>
    <defs>
        <linearGradient id="_Linear2" x1="0" y1="0" x2="1" y2="0" gradientUnits="userSpaceOnUse" gradientTransform="matrix(-47.6079,-10.7252,10.7252,-47.6079,208.189,166.159)"><stop offset="0" style="stop-color:#fd8b00;stop-opacity:1"/><stop offset="0.45" style="stop-color:#b4a440;stop-opacity:1"/><stop offset="1" style="stop-color:#00e2dd;stop-opacity:1"/></linearGradient>
        <linearGradient id="_Linear3" x1="0" y1="0" x2="1" y2="0" gradientUnits="userSpaceOnUse" gradientTransform="matrix(-3.85349,182.635,-182.635,-3.85349,-2910.8,-1454.75)"><stop offset="0" style="stop-color:#787878;stop-opacity:1"/><stop offset="0.07" style="stop-color:#bebebe;stop-opacity:1"/><stop offset="0.15" style="stop-color:#d3d3d3;stop-opacity:1"/><stop offset="0.37" style="stop-color:#e6e6e6;stop-opacity:1"/><stop offset="0.73" style="stop-color:#e5e5e5;stop-opacity:1"/><stop offset="0.89" style="stop-color:#c2c2c2;stop-opacity:1"/><stop offset="0.95" style="stop-color:#787878;stop-opacity:1"/><stop offset="1" style="stop-color:#313131;stop-opacity:1"/></linearGradient>
        <linearGradient id="_Linear4" x1="0" y1="0" x2="1" y2="0" gradientUnits="userSpaceOnUse" gradientTransform="matrix(-3.08369,33.0016,-33.0016,-3.08369,-2952.77,-1298.32)"><stop offset="0" style="stop-color:#e6e6e6;stop-opacity:1"/><stop offset="0.13" style="stop-color:#dedede;stop-opacity:1"/><stop offset="0.29" style="stop-color:#c8c8c8;stop-opacity:1"/><stop offset="1" style="stop-color:#101010;stop-opacity:1"/></linearGradient>
        <linearGradient id="_Linear5" x1="0" y1="0" x2="1" y2="0" gradientUnits="userSpaceOnUse" gradientTransform="matrix(-45.3011,-46.4041,46.4041,-45.3011,-2860.18,-1415.74)"><stop offset="0" style="stop-color:#969696;stop-opacity:1"/><stop offset="1" style="stop-color:#252525;stop-opacity:1"/></linearGradient>
        <linearGradient id="_Linear6" x1="0" y1="0" x2="1" y2="0" gradientUnits="userSpaceOnUse" gradientTransform="matrix(14.6431,17.7702,-17.7702,14.6431,-3206.08,-1149.25)"><stop offset="0" style="stop-color:#969696;stop-opacity:1"/><stop offset="1" style="stop-color:#5f5f5f;stop-opacity:1"/></linearGradient>
        <linearGradient id="_Linear7" x1="0" y1="0" x2="1" y2="0" gradientUnits="userSpaceOnUse" gradientTransform="matrix(194.998,-4.20367,2.30686,107.01,-3293.86,-1114.78)"><stop offset="0" style="stop-color:#cecece;stop-opacity:1"/><stop offset="0.28" style="stop-color:#d6d6d6;stop-opacity:1"/><stop offset="0.37" style="stop-color:#e9e9e9;stop-opacity:1"/><stop offset="0.45" style="stop-color:#fdfdfd;stop-opacity:1"/><stop offset="0.54" style="stop-color:#e8e8e8;stop-opacity:1"/><stop offset="0.65" style="stop-color:#d5d5d5;stop-opacity:1"/><stop offset="1" style="stop-color:#cecece;stop-opacity:1"/></linearGradient>
        <linearGradient id="_Linear8" x1="0" y1="0" x2="1" y2="0" gradientUnits="userSpaceOnUse" gradientTransform="matrix(4.02511,21.5049,-21.5049,4.02511,-3212.38,-1085.02)"><stop offset="0" style="stop-color:#969696;stop-opacity:1"/><stop offset="1" style="stop-color:#5f5f5f;stop-opacity:1"/></linearGradient>
        <linearGradient id="_Linear9" x1="0" y1="0" x2="1" y2="0" gradientUnits="userSpaceOnUse" gradientTransform="matrix(88.312,-13.2554,8.99966,59.9589,-3244.37,-1074.54)"><stop offset="0" style="stop-color:#cecece;stop-opacity:1"/><stop offset="0.28" style="stop-color:#d6d6d6;stop-opacity:1"/><stop offset="0.37" style="stop-color:#e9e9e9;stop-opacity:1"/><stop offset="0.45" style="stop-color:#fdfdfd;stop-opacity:1"/><stop offset="0.54" style="stop-color:#e8e8e8;stop-opacity:1"/><stop offset="0.65" style="stop-color:#d5d5d5;stop-opacity:1"/><stop offset="1" style="stop-color:#cecece;stop-opacity:1"/></linearGradient>
        <linearGradient id="_Linear10" x1="0" y1="0" x2="1" y2="0" gradientUnits="userSpaceOnUse" gradientTransform="matrix(9.22287,4.47567,-4.47567,9.22287,-3160.82,-1083.69)"><stop offset="0" style="stop-color:#808080;stop-opacity:1"/><stop offset="1" style="stop-color:#4d4d4d;stop-opacity:1"/></linearGradient>
        <linearGradient id="_Linear11" x1="0" y1="0" x2="1" y2="0" gradientUnits="userSpaceOnUse" gradientTransform="matrix(63.7301,16.0581,-29.7872,118.217,-3187.21,-1071.91)"><stop offset="0" style="stop-color:#cecece;stop-opacity:1"/><stop offset="0.28" style="stop-color:#d6d6d6;stop-opacity:1"/><stop offset="0.37" style="stop-color:#e9e9e9;stop-opacity:1"/><stop offset="0.45" style="stop-color:#fdfdfd;stop-opacity:1"/><stop offset="0.54" style="stop-color:#e8e8e8;stop-opacity:1"/><stop offset="0.65" style="stop-color:#d5d5d5;stop-opacity:1"/><stop offset="1" style="stop-color:#cecece;stop-opacity:1"/></linearGradient>
        <linearGradient id="_Linear12" x1="0" y1="0" x2="1" y2="0" gradientUnits="userSpaceOnUse" gradientTransform="matrix(171.855,141.482,-141.484,171.857,-4038.82,-1153.22)"><stop offset="0" style="stop-color:#cecece;stop-opacity:1"/><stop offset="0.28" style="stop-color:#d9d9d9;stop-opacity:1"/><stop offset="0.55" style="stop-color:#fcfcfc;stop-opacity:1"/><stop offset="0.64" style="stop-color:#eaeaea;stop-opacity:1"/><stop offset="0.74" style="stop-color:#d7d7d7;stop-opacity:1"/><stop offset="1" style="stop-color:#cecece;stop-opacity:1"/></linearGradient>
        <linearGradient id="_Linear13" x1="0" y1="0" x2="1" y2="0" gradientUnits="userSpaceOnUse" gradientTransform="matrix(8.57744,60.2493,-60.2493,8.57744,-4008.78,-1146.61)"><stop offset="0" style="stop-color:#969696;stop-opacity:1"/><stop offset="1" style="stop-color:#5f5f5f;stop-opacity:1"/></linearGradient>
        <linearGradient id="_Linear14" x1="0" y1="0" x2="1" y2="0" gradientUnits="userSpaceOnUse" gradientTransform="matrix(35.5353,47.0164,-47.0164,35.5353,-3983.49,-1197.61)"><stop offset="0" style="stop-color:#969696;stop-opacity:1"/><stop offset="1" style="stop-color:#5f5f5f;stop-opacity:1"/></linearGradient>
        <linearGradient id="_Linear15" x1="0" y1="0" x2="1" y2="0" gradientUnits="userSpaceOnUse" gradientTransform="matrix(-3.05288,67.202,-67.202,-3.05288,-3905.15,-1103.79)"><stop offset="0" style="stop-color:#969696;stop-opacity:1"/><stop offset="1" style="stop-color:#5f5f5f;stop-opacity:1"/></linearGradient>
        <radialGradient id="_Radial16" cx="0" cy="0" r="1" gradientUnits="userSpaceOnUse" gradientTransform="matrix(-126.287,100.606,-100.606,-126.287,-3704.78,-1132.6)"><stop offset="0" style="stop-color:#efefef;stop-opacity:1"/><stop offset="0.33" style="stop-color:#e5e5e5;stop-opacity:1"/><stop offset="0.51" style="stop-color:#a9a9a9;stop-opacity:1"/><stop offset="0.55" style="stop-color:#b4b4b4;stop-opacity:1"/><stop offset="0.6" style="stop-color:#bcbcbc;stop-opacity:1"/><stop offset="0.8" style="stop-color:#bfbfbf;stop-opacity:1"/><stop offset="1" style="stop-color:#b4b4b4;stop-opacity:1"/></radialGradient>
        <radialGradient id="_Radial17" cx="0" cy="0" r="1" gradientUnits="userSpaceOnUse" gradientTransform="matrix(13.8141,1.13687e-13,-1.01964e-13,12.3897,-3502.82,-1778.01)"><stop offset="0" style="stop-color:#e7e7e7;stop-opacity:1"/><stop offset="0.64" style="stop-color:#d9d9d9;stop-opacity:1"/><stop offset="1" style="stop-color:#878787;stop-opacity:1"/></radialGradient>
        <radialGradient id="_Radial18" cx="0" cy="0" r="1" gradientUnits="userSpaceOnUse" gradientTransform="matrix(76.0072,-12.8437,11.2643,66.6603,-3445.78,-1914.27)"><stop offset="0" style="stop-color:#e7e7e7;stop-opacity:1"/><stop offset="0.5" style="stop-color:#e4e4e4;stop-opacity:1"/><stop offset="0.65" style="stop-color:#ddd;stop-opacity:1"/><stop offset="0.79" style="stop-color:#d6d6d6;stop-opacity:1"/><stop offset="0.93" style="stop-color:#cbcbcb;stop-opacity:1"/><stop offset="1" style="stop-color:#878787;stop-opacity:1"/></radialGradient>
        <radialGradient id="_Radial19" cx="0" cy="0" r="1" gradientUnits="userSpaceOnUse" gradientTransform="matrix(22.0771,0,0,19.481,-3475.65,-1817.37)"><stop offset="0" style="stop-color:#e7e7e7;stop-opacity:1"/><stop offset="0.64" style="stop-color:#dcdcdc;stop-opacity:1"/><stop offset="1" style="stop-color:#9f9f9f;stop-opacity:1"/></radialGradient>
    </defs>
</svg>
